<svg width="100" height="100" viewBox="0 0 100 100" fill="none" xmlns="http://www.w3.org/2000/svg">
  <!-- Light rays from interior #C9A34A -->
  <g stroke="#C9A34A" stroke-width="0.6" opacity="0.7" stroke-linecap="round">
    <line x1="50" y1="52" x2="50" y2="12"/><line x1="50" y1="52" x2="62" y2="16"/><line x1="50" y1="52" x2="72" y2="22"/><line x1="50" y1="52" x2="80" y2="34"/><line x1="50" y1="52" x2="84" y2="50"/><line x1="50" y1="52" x2="72" y2="68"/><line x1="50" y1="52" x2="28" y2="68"/><line x1="50" y1="52" x2="16" y2="50"/><line x1="50" y1="52" x2="20" y2="34"/><line x1="50" y1="52" x2="28" y2="22"/><line x1="50" y1="52" x2="38" y2="16"/>
  </g>
  <circle cx="50" cy="52" r="2.5" fill="#C9A34A" opacity="0.9"/>
  <!-- Trunk twisted -->
  <path d="M46 88 C44 80,46 72,44 64 C42 56,40 48,44 42 C48 38,52 38,56 42 C60 48,58 56,56 64 C54 72,56 80,54 88 Z" fill="#3D4F2A"/>
  <!-- Branches -->
  <path d="M48 44 C40 38,28 34,16 42" stroke="#3D4F2A" stroke-width="2" fill="none" stroke-linecap="round"/>
  <path d="M52 44 C60 38,72 34,84 42" stroke="#3D4F2A" stroke-width="2" fill="none" stroke-linecap="round"/>
  <!-- Leaves -->
  <g fill="#526B3A">
    <ellipse cx="22" cy="42" rx="2" ry="4.5" transform="rotate(-25 22 42)"/><ellipse cx="16" cy="50" rx="1.8" ry="4" transform="rotate(-30 16 50)"/><ellipse cx="78" cy="42" rx="2" ry="4.5" transform="rotate(25 78 42)"/><ellipse cx="84" cy="50" rx="1.8" ry="4" transform="rotate(30 84 50)"/><ellipse cx="40" cy="24" rx="1.6" ry="3.5" transform="rotate(-15 40 24)"/><ellipse cx="60" cy="24" rx="1.6" ry="3.5" transform="rotate(15 60 24)"/>
  </g>
  <!-- Olives -->
  <g fill="#4A5D2F"><ellipse cx="36" cy="32" rx="1.5" ry="2"/><ellipse cx="64" cy="32" rx="1.5" ry="2"/><ellipse cx="30" cy="54" rx="1.3" ry="1.8"/><ellipse cx="70" cy="54" rx="1.3" ry="1.8"/></g>
  <!-- Fig accent #684552 -->
  <g>
    <path d="M72 72 C72 70,74 68,76 68 C78 68,80 70,80 72 C80 76,76 80,74 80 C72 80,68 76,72 72 Z" fill="#684552"/>
    <path d="M74 68 L74 66" stroke="#3D4F2A" stroke-width="0.8" stroke-linecap="round"/>
    <ellipse cx="82" cy="74" rx="2" ry="4" transform="rotate(25 82 74)" fill="#526B3A"/>
  </g>
  <!-- Roots -->
  <path d="M46 88 C42 86,34 86,28 88 C34 86,40 84,42 82 M54 88 C58 86,66 86,72 88 C66 86,60 84,58 82" stroke="#3D4F2A" stroke-width="1" fill="none" stroke-linecap="round"/>
</svg>
