<svg width="100" height="100" viewBox="0 0 100 100" fill="none" xmlns="http://www.w3.org/2000/svg">
  <!-- Gold circle border #C9A34A -->
  <circle cx="50" cy="50" r="46" stroke="#C9A34A" stroke-width="3" fill="#FFFEF8"/>
  <!-- Light rays from golden leaf -->
  <g stroke="#C9A34A" stroke-width="0.7" stroke-linecap="round" opacity="0.8">
    <line x1="50" y1="38" x2="38" y2="18"/><line x1="50" y1="38" x2="32" y2="22"/><line x1="50" y1="38" x2="26" y2="28"/><line x1="50" y1="38" x2="22" y2="36"/>
    <line x1="50" y1="38" x2="62" y2="18"/><line x1="50" y1="38" x2="68" y2="22"/><line x1="50" y1="38" x2="74" y2="28"/><line x1="50" y1="38" x2="78" y2="36"/>
    <line x1="50" y1="38" x2="50" y2="14"/>
  </g>
  <!-- Golden leaf top #C9A34A with veins -->
  <path d="M50 10 C 46 14, 40 20, 40 30 C 40 36, 46 42, 50 48 C 54 42, 60 36, 60 30 C 60 20, 54 14, 50 10 Z" fill="#C9A34A"/>
  <path d="M50 16 L50 44 M46 22 L50 26 L54 22 M44 28 L50 32 L56 28 M46 36 L50 40 L54 36" stroke="#FFFEF8" stroke-width="0.8" stroke-linecap="round" fill="none"/>
  <!-- Small dark green leaves under golden leaf -->
  <ellipse cx="38" cy="46" rx="3" ry="7" transform="rotate(-25 38 46)" fill="#3D4F2A"/>
  <ellipse cx="62" cy="46" rx="3" ry="7" transform="rotate(25 62 46)" fill="#3D4F2A"/>
  <ellipse cx="34" cy="54" rx="2.5" ry="6" transform="rotate(-15 34 54)" fill="#3D4F2A"/>
  <ellipse cx="66" cy="54" rx="2.5" ry="6" transform="rotate(15 66 54)" fill="#3D4F2A"/>
  <!-- Large side leaves -->
  <path d="M28 78 C 20 70, 14 58, 18 44 C 22 38, 30 36, 36 42 C 42 48, 48 60, 48 72 C 48 78, 38 84, 28 78 Z" fill="#3D4F2A"/>
  <path d="M72 78 C 80 70, 86 58, 82 44 C 78 38, 70 36, 64 42 C 58 48, 52 60, 52 72 C 52 78, 62 84, 72 78 Z" fill="#3D4F2A"/>
  <!-- Leaf veins white -->
  <path d="M32 72 Q 38 64, 44 50 M28 60 L32 58 M26 66 L30 64" stroke="#FFFEF8" stroke-width="0.7" fill="none" stroke-linecap="round" opacity="0.9"/>
  <path d="M68 72 Q 62 64, 56 50 M72 60 L68 58 M74 66 L70 64" stroke="#FFFEF8" stroke-width="0.7" fill="none" stroke-linecap="round" opacity="0.9"/>
  <!-- Central olive -->
  <ellipse cx="50" cy="62" rx="9" ry="12" fill="#3D4F2A"/>
  <ellipse cx="53" cy="58" rx="2.5" ry="3.5" fill="white" opacity="0.9" transform="rotate(20 53 58)"/>
  <!-- Small stem -->
  <rect x="49" y="72" width="2" height="8" fill="#3D4F2A"/>
</svg>
